<?xml version="1.0" standalone="no"?>
<!DOCTYPE svg PUBLIC "-//W3C//DTD SVG 20010904//EN"
 "http://www.w3.org/TR/2001/REC-SVG-20010904/DTD/svg10.dtd">
<svg version="1.0" xmlns="http://www.w3.org/2000/svg"
 width="50.000000pt" height="50.000000pt" viewBox="0 0 50.000000 50.000000"
 preserveAspectRatio="xMidYMid meet">

<g transform="translate(0.000000,50.000000) scale(0.100000,-0.100000)"
fill="#000000" stroke="none">
<path d="M230 381 l0 -100 -102 -3 c-102 -3 -103 -3 -103 -28 0 -25 1 -25 103
-28 l102 -3 0 -100 c0 -98 0 -100 23 -97 21 3 22 8 25 100 l3 97 97 3 c96 3
97 3 97 28 0 25 -1 25 -97 28 l-97 3 -3 97 c-3 92 -4 97 -25 100 -23 3 -23 1
-23 -97z"/>
</g>
</svg>
