<?xml version="1.0" standalone="no"?>
<!DOCTYPE svg PUBLIC "-//W3C//DTD SVG 20010904//EN"
 "http://www.w3.org/TR/2001/REC-SVG-20010904/DTD/svg10.dtd">
<svg version="1.0" xmlns="http://www.w3.org/2000/svg"
 width="120.000000pt" height="120.000000pt" viewBox="0 0 120.000000 120.000000"
 preserveAspectRatio="xMidYMid meet">

<g transform="translate(0.000000,120.000000) scale(0.100000,-0.100000)"
fill="#000000" stroke="none">
<path d="M476 1124 c-191 -46 -355 -212 -401 -405 -91 -389 265 -745 654 -654
196 47 359 210 406 406 92 391 -268 748 -659 653z m248 -29 c98 -26 166 -65
242 -140 206 -205 206 -515 0 -720 -209 -207 -513 -207 -722 0 -207 205 -206
513 1 720 132 132 309 184 479 140z"/>
<path d="M451 809 c6 -13 36 -63 65 -111 30 -49 54 -90 54 -93 0 -2 -29 -52
-65 -112 -36 -59 -65 -112 -65 -116 0 -5 15 -7 33 -5 29 3 36 11 83 96 l52 93
54 -93 c49 -84 57 -93 86 -96 18 -2 32 1 32 7 0 6 -29 59 -65 117 -36 59 -65
109 -65 111 0 3 29 52 65 109 36 57 65 106 65 109 0 3 -15 5 -33 5 -32 0 -36
-5 -84 -90 l-50 -91 -50 88 c-48 84 -52 88 -87 91 -36 3 -37 2 -25 -19z"/>
</g>
</svg>
