<?xml version="1.0" standalone="no"?>
<!DOCTYPE svg PUBLIC "-//W3C//DTD SVG 20010904//EN"
 "http://www.w3.org/TR/2001/REC-SVG-20010904/DTD/svg10.dtd">
<svg version="1.0" xmlns="http://www.w3.org/2000/svg"
 width="120.000000pt" height="120.000000pt" viewBox="0 0 120.000000 120.000000"
 preserveAspectRatio="xMidYMid meet">

<g transform="translate(0.000000,120.000000) scale(0.100000,-0.100000)"
fill="#000000" stroke="none">
<path d="M476 1124 c-191 -46 -355 -212 -401 -405 -91 -389 265 -745 654 -654
196 47 359 210 406 406 92 391 -268 748 -659 653z m248 -29 c98 -26 166 -65
242 -140 206 -205 206 -515 0 -720 -209 -207 -513 -207 -722 0 -207 205 -206
513 1 720 132 132 309 184 479 140z"/>
<path d="M192 777 c-47 -50 -14 -131 50 -125 43 4 49 27 8 26 -18 -1 -36 5
-41 13 -25 40 5 95 47 85 17 -5 24 -2 24 9 0 25 -63 19 -88 -8z"/>
<path d="M310 724 c0 -56 3 -75 13 -72 6 3 13 17 15 31 4 36 28 34 47 -3 9
-16 20 -30 25 -30 19 0 10 41 -14 65 l-23 23 31 31 c27 27 28 31 11 31 -11 0
-32 -14 -47 -32 l-27 -33 -1 33 c0 22 -5 32 -15 32 -12 0 -15 -15 -15 -76z"/>
<path d="M450 692 c0 -79 3 -103 13 -100 6 3 13 19 15 36 3 28 6 31 30 26 41
-8 76 24 76 69 0 54 -26 77 -85 74 l-49 -2 0 -103z m94 66 c20 -29 20 -41 -2
-68 -26 -32 -62 -13 -62 33 0 56 36 75 64 35z"/>
<path d="M617 793 c-4 -3 -7 -35 -7 -70 0 -72 7 -79 66 -69 71 14 65 96 -8 96
-23 0 -28 4 -28 25 0 24 -10 32 -23 18z m74 -79 c11 -14 10 -18 -6 -30 -26
-19 -39 -13 -43 19 -3 21 1 27 16 27 11 0 26 -7 33 -16z"/>
<path d="M742 728 c2 -46 7 -73 16 -76 9 -3 12 16 12 72 0 62 -3 76 -15 76
-13 0 -15 -12 -13 -72z"/>
<path d="M790 785 c0 -8 9 -15 20 -15 16 0 19 -8 22 -57 4 -81 28 -85 28 -5 0
53 2 61 20 64 41 6 19 23 -35 26 -44 2 -55 0 -55 -13z"/>
<path d="M924 786 c-3 -7 -4 -40 -2 -72 3 -59 3 -59 36 -62 43 -4 82 21 82 53
0 27 -25 45 -64 45 -21 0 -26 5 -26 25 0 27 -17 34 -26 11z m84 -83 c2 -14 -3
-23 -17 -28 -28 -9 -41 1 -41 31 0 22 4 25 28 22 19 -2 28 -9 30 -25z"/>
<path d="M361 433 c-17 -14 -23 -29 -23 -58 0 -48 30 -78 75 -73 46 5 45 26 0
30 -36 3 -38 5 -41 40 -2 29 1 39 18 48 11 6 30 8 42 5 15 -5 19 -3 16 6 -7
22 -62 22 -87 2z"/>
<path d="M462 438 c3 -7 14 -14 26 -16 20 -3 22 -9 22 -64 0 -80 24 -76 28 5
3 49 6 57 22 57 11 0 20 7 20 15 0 12 -13 15 -61 15 -44 0 -60 -3 -57 -12z"/>
<path d="M609 431 c-49 -40 -18 -131 46 -131 38 0 69 33 69 73 0 68 -63 100
-115 58z m77 -25 c13 -22 14 -29 2 -53 -17 -36 -48 -36 -67 -2 -13 24 -13 29
2 53 22 33 42 33 63 2z"/>
<path d="M767 444 c-4 -4 -7 -27 -7 -51 0 -24 -5 -52 -12 -63 -17 -27 -2 -37
22 -15 14 13 20 31 20 62 0 39 2 43 25 43 24 0 25 -3 25 -61 0 -44 3 -60 13
-56 8 2 12 26 12 73 l0 69 -45 3 c-25 2 -49 0 -53 -4z"/>
</g>
</svg>
