<?xml version="1.0" standalone="no"?>
<!DOCTYPE svg PUBLIC "-//W3C//DTD SVG 20010904//EN"
 "http://www.w3.org/TR/2001/REC-SVG-20010904/DTD/svg10.dtd">
<svg version="1.0" xmlns="http://www.w3.org/2000/svg"
 width="120.000000pt" height="120.000000pt" viewBox="0 0 120.000000 120.000000"
 preserveAspectRatio="xMidYMid meet">

<g transform="translate(0.000000,120.000000) scale(0.100000,-0.100000)"
fill="#000000" stroke="none">
<path d="M476 1124 c-191 -46 -355 -212 -401 -405 -91 -389 265 -745 654 -654
196 47 359 210 406 406 92 391 -268 748 -659 653z m248 -29 c98 -26 166 -65
242 -140 206 -205 206 -515 0 -720 -209 -207 -513 -207 -722 0 -207 205 -206
513 1 720 132 132 309 184 479 140z"/>
<path d="M653 785 c-30 -13 -42 -33 -27 -47 3 -4 17 0 32 8 35 18 52 18 80 -2
27 -19 30 -68 6 -104 -9 -14 -46 -55 -83 -92 -45 -47 -62 -71 -55 -78 7 -7 50
-10 110 -8 85 3 99 5 102 21 3 15 -5 17 -67 17 -39 0 -71 3 -71 6 0 3 11 15
24 25 38 30 95 113 102 148 9 45 -13 91 -52 107 -41 17 -60 17 -101 -1z"/>
<path d="M366 698 c4 -7 22 -34 41 -60 l34 -47 -40 -60 c-23 -33 -41 -62 -41
-65 0 -4 9 -6 19 -6 11 0 32 16 47 38 16 20 31 41 35 45 4 5 21 -12 38 -37 20
-28 40 -46 51 -46 28 0 25 13 -17 75 l-36 55 36 53 c43 62 44 67 17 67 -12 0
-30 -16 -46 -40 -15 -22 -30 -40 -34 -40 -4 0 -19 18 -34 40 -19 29 -33 40
-52 40 -17 0 -23 -4 -18 -12z"/>
</g>
</svg>
