<?xml version="1.0" standalone="no"?>
<!DOCTYPE svg PUBLIC "-//W3C//DTD SVG 20010904//EN"
 "http://www.w3.org/TR/2001/REC-SVG-20010904/DTD/svg10.dtd">
<svg version="1.0" xmlns="http://www.w3.org/2000/svg"
 width="120.000000pt" height="120.000000pt" viewBox="0 0 120.000000 120.000000"
 preserveAspectRatio="xMidYMid meet">

<g transform="translate(0.000000,120.000000) scale(0.100000,-0.100000)"
fill="#000000" stroke="none">
<path d="M476 1124 c-191 -46 -355 -212 -401 -405 -91 -389 265 -745 654 -654
196 47 359 210 406 406 92 391 -268 748 -659 653z m253 -29 c94 -25 162 -65
237 -139 206 -207 206 -516 0 -721 -209 -207 -513 -207 -722 0 -106 105 -154
219 -154 365 0 233 153 433 377 495 65 18 196 18 262 0z"/>
<path d="M362 833 c-120 -59 -135 -239 -30 -358 68 -77 244 -225 269 -225 42
0 277 218 315 292 44 87 28 204 -38 265 -33 31 -71 43 -133 43 -46 0 -60 -5
-100 -36 l-47 -36 -27 25 c-14 13 -36 30 -48 36 -32 16 -123 13 -161 -6z m158
-41 c14 -8 35 -28 48 -43 13 -16 28 -29 33 -29 5 0 25 18 45 40 76 83 188 68
241 -34 10 -20 14 -49 11 -91 -3 -52 -10 -69 -41 -112 -33 -46 -237 -233 -253
-233 -11 0 -94 70 -181 153 -90 87 -123 141 -123 205 0 80 36 132 107 157 41
15 74 11 113 -13z"/>
</g>
</svg>
