<?xml version="1.0" standalone="no"?>
<!DOCTYPE svg PUBLIC "-//W3C//DTD SVG 20010904//EN"
 "http://www.w3.org/TR/2001/REC-SVG-20010904/DTD/svg10.dtd">
<svg version="1.0" xmlns="http://www.w3.org/2000/svg"
 width="120.000000pt" height="120.000000pt" viewBox="0 0 120.000000 120.000000"
 preserveAspectRatio="xMidYMid meet">

<g transform="translate(0.000000,120.000000) scale(0.100000,-0.100000)"
fill="#000000" stroke="none">
<path d="M476 1124 c-191 -46 -355 -212 -401 -405 -91 -389 265 -745 654 -654
196 47 359 210 406 406 92 391 -268 748 -659 653z m248 -29 c98 -26 166 -65
242 -140 206 -205 206 -515 0 -720 -209 -207 -513 -207 -722 0 -207 205 -206
513 1 720 132 132 309 184 479 140z"/>
<path d="M557 859 c-82 -20 -141 -71 -178 -154 -57 -129 4 -286 135 -346 88
-40 220 -14 286 56 22 24 23 26 7 42 -16 16 -19 16 -44 -5 -16 -13 -46 -31
-68 -42 -166 -81 -343 106 -264 280 38 85 93 120 186 120 59 0 101 -18 151
-63 32 -30 28 -37 -27 -37 -49 0 -79 -18 -66 -40 3 -6 44 -10 94 -10 113 0
121 7 121 112 0 55 -4 79 -15 88 -25 21 -45 -5 -45 -58 l0 -46 -37 36 c-62 60
-156 87 -236 67z"/>
</g>
</svg>
