<?xml version="1.0" standalone="no"?>
<!DOCTYPE svg PUBLIC "-//W3C//DTD SVG 20010904//EN"
 "http://www.w3.org/TR/2001/REC-SVG-20010904/DTD/svg10.dtd">
<svg version="1.0" xmlns="http://www.w3.org/2000/svg"
 width="120.000000pt" height="120.000000pt" viewBox="0 0 120.000000 120.000000"
 preserveAspectRatio="xMidYMid meet">

<g transform="translate(0.000000,120.000000) scale(0.100000,-0.100000)"
fill="#000000" stroke="none">
<path d="M476 1124 c-191 -46 -355 -212 -401 -405 -91 -389 265 -745 654 -654
196 47 359 210 406 406 92 391 -268 748 -659 653z m248 -29 c98 -26 166 -65
242 -140 206 -205 206 -515 0 -720 -209 -207 -513 -207 -722 0 -207 205 -206
513 1 720 132 132 309 184 479 140z"/>
<path d="M443 750 c-54 -12 -81 -37 -93 -82 -29 -107 43 -195 117 -143 69 49
13 181 -62 147 -20 -9 -25 -9 -25 3 0 17 34 40 73 49 15 4 27 13 27 21 0 8 -1
15 -2 14 -2 -1 -18 -4 -35 -9z m5 -112 c13 -13 16 -56 6 -82 -7 -19 -45 -21
-62 -4 -7 7 -12 26 -12 43 0 34 15 55 40 55 9 0 21 -5 28 -12z"/>
<path d="M232 673 c-24 -9 -44 -64 -37 -99 7 -42 42 -67 86 -62 45 4 51 28 7
28 -42 0 -58 15 -58 55 0 40 16 55 57 55 23 0 33 5 33 15 0 11 -10 15 -37 14
-21 0 -44 -3 -51 -6z"/>
<path d="M530 565 c0 -96 3 -115 15 -115 11 0 15 11 15 42 0 33 3 39 12 30 15
-15 53 -16 78 -2 10 5 24 26 30 45 20 60 -11 115 -65 115 -17 0 -36 -5 -43
-12 -9 -9 -12 -9 -12 0 0 7 -7 12 -15 12 -12 0 -15 -19 -15 -115z m108 73 c17
-17 15 -73 -2 -88 -42 -34 -92 22 -68 75 13 27 49 34 70 13z"/>
<path d="M735 655 c-51 -51 -17 -145 53 -145 44 0 72 28 79 77 5 35 2 45 -20
67 -34 34 -79 34 -112 1z m77 -7 c20 -15 25 -43 15 -80 -6 -23 -13 -28 -37
-28 -49 0 -68 62 -30 100 23 23 30 24 52 8z"/>
<path d="M932 673 c-24 -9 -44 -64 -37 -99 7 -42 42 -67 86 -62 45 4 51 28 7
28 -42 0 -58 15 -58 55 0 40 16 55 57 55 23 0 33 5 33 15 0 11 -10 15 -37 14
-21 0 -44 -3 -51 -6z"/>
</g>
</svg>
