<?xml version="1.0" standalone="no"?>
<!DOCTYPE svg PUBLIC "-//W3C//DTD SVG 20010904//EN"
 "http://www.w3.org/TR/2001/REC-SVG-20010904/DTD/svg10.dtd">
<svg version="1.0" xmlns="http://www.w3.org/2000/svg"
 width="120.000000pt" height="120.000000pt" viewBox="0 0 120.000000 120.000000"
 preserveAspectRatio="xMidYMid meet">

<g transform="translate(0.000000,120.000000) scale(0.100000,-0.100000)"
fill="#000000" stroke="none">
<path d="M476 1124 c-191 -46 -355 -212 -401 -405 -91 -389 265 -745 654 -654
196 47 359 210 406 406 92 391 -268 748 -659 653z m248 -29 c98 -26 166 -65
242 -140 206 -205 206 -515 0 -720 -209 -207 -513 -207 -722 0 -207 205 -206
513 1 720 132 132 309 184 479 140z"/>
<path d="M962 758 c-43 -21 -43 -83 1 -108 24 -13 30 -13 55 0 20 12 28 24 30
51 4 51 -39 79 -86 57z m53 -53 c0 -25 -4 -30 -25 -30 -16 0 -26 6 -28 18 -6
30 6 49 30 45 18 -2 23 -9 23 -33z"/>
<path d="M532 749 c-23 -7 -38 -20 -49 -44 -15 -31 -15 -35 4 -67 l20 -34 -24
-29 c-64 -73 36 -165 130 -120 60 28 71 91 25 135 -19 18 -20 21 -6 37 39 46
27 96 -27 118 -19 8 -36 15 -37 14 -2 0 -18 -5 -36 -10z m68 -43 c16 -21 9
-56 -15 -72 -41 -27 -88 39 -53 74 16 16 53 15 68 -2z m-2 -132 c24 -17 30
-62 10 -82 -7 -7 -26 -12 -43 -12 -17 0 -36 5 -43 12 -28 28 -1 98 37 98 9 0
27 -7 39 -16z"/>
<path d="M785 752 c-58 -12 -88 -73 -83 -168 4 -84 26 -123 75 -138 72 -20
123 44 123 154 0 79 -22 129 -65 145 -16 6 -39 10 -50 7z m51 -53 c15 -17 19
-36 19 -99 0 -82 -17 -120 -55 -120 -37 0 -55 38 -55 114 0 109 43 158 91 105z"/>
<path d="M288 732 c-16 -10 -28 -25 -28 -34 0 -22 9 -23 38 -2 l22 15 0 -130
c0 -124 1 -131 20 -131 19 0 20 7 20 150 0 149 0 150 -22 149 -13 0 -35 -8
-50 -17z"/>
</g>
</svg>
