<?xml version="1.0" standalone="no"?>
<!DOCTYPE svg PUBLIC "-//W3C//DTD SVG 20010904//EN"
 "http://www.w3.org/TR/2001/REC-SVG-20010904/DTD/svg10.dtd">
<svg version="1.0" xmlns="http://www.w3.org/2000/svg"
 width="120.000000pt" height="120.000000pt" viewBox="0 0 120.000000 120.000000"
 preserveAspectRatio="xMidYMid meet">

<g transform="translate(0.000000,120.000000) scale(0.100000,-0.100000)"
fill="#000000" stroke="none">
<path d="M476 1124 c-191 -46 -355 -212 -401 -405 -91 -389 265 -745 654 -654
196 47 359 210 406 406 92 391 -268 748 -659 653z m248 -29 c98 -26 166 -65
242 -140 206 -205 206 -515 0 -720 -209 -207 -513 -207 -722 0 -207 205 -206
513 1 720 132 132 309 184 479 140z"/>
<path d="M295 656 c-55 -55 -15 -151 60 -144 48 4 49 21 1 29 -41 7 -56 21
-56 55 0 32 22 53 60 56 46 4 45 22 -2 26 -29 3 -43 -2 -63 -22z"/>
<path d="M430 595 c0 -69 3 -85 15 -85 12 0 15 14 15 70 l0 70 35 0 34 0 3
-67 c2 -53 6 -68 18 -68 12 0 15 16 15 80 l0 80 -67 3 -68 3 0 -86z"/>
<path d="M610 595 c0 -107 14 -111 70 -22 l40 62 0 -62 c0 -49 3 -63 15 -63
12 0 15 16 15 85 0 77 -2 85 -19 85 -14 0 -31 -19 -55 -62 l-36 -63 0 63 c0
48 -3 62 -15 62 -12 0 -15 -16 -15 -85z"/>
<path d="M792 598 c2 -66 6 -83 18 -83 10 0 16 12 18 38 3 35 5 37 38 37 33 0
34 -1 34 -40 0 -29 4 -40 15 -40 12 0 15 16 15 85 0 69 -3 85 -15 85 -10 0
-15 -11 -15 -35 0 -33 -2 -35 -34 -35 -32 0 -35 3 -38 32 -2 22 -9 34 -21 36
-16 3 -18 -4 -15 -80z"/>
</g>
</svg>
