<?xml version="1.0" standalone="no"?>
<!DOCTYPE svg PUBLIC "-//W3C//DTD SVG 20010904//EN"
 "http://www.w3.org/TR/2001/REC-SVG-20010904/DTD/svg10.dtd">
<svg version="1.0" xmlns="http://www.w3.org/2000/svg"
 width="120.000000pt" height="120.000000pt" viewBox="0 0 120.000000 120.000000"
 preserveAspectRatio="xMidYMid meet">

<g transform="translate(0.000000,120.000000) scale(0.100000,-0.100000)"
fill="#000000" stroke="none">
<path d="M476 1124 c-191 -46 -355 -212 -401 -405 -91 -389 265 -745 654 -654
196 47 359 210 406 406 92 391 -268 748 -659 653z m248 -29 c98 -26 166 -65
242 -140 206 -205 206 -515 0 -720 -209 -207 -513 -207 -722 0 -207 205 -206
513 1 720 132 132 309 184 479 140z"/>
<path d="M790 805 l0 -55 -135 0 -135 0 0 -35 0 -35 135 0 135 0 0 -55 c0 -30
3 -55 8 -55 11 0 142 134 142 146 0 11 -132 144 -143 144 -4 0 -7 -25 -7 -55z"/>
<path d="M327 562 c-37 -37 -67 -72 -67 -78 0 -11 132 -144 143 -144 4 0 7 25
7 55 l0 55 135 0 135 0 0 35 0 35 -135 0 -135 0 0 55 c0 30 -3 55 -8 55 -4 0
-38 -30 -75 -68z"/>
</g>
</svg>
