<?xml version="1.0" standalone="no"?>
<!DOCTYPE svg PUBLIC "-//W3C//DTD SVG 20010904//EN"
 "http://www.w3.org/TR/2001/REC-SVG-20010904/DTD/svg10.dtd">
<svg version="1.0" xmlns="http://www.w3.org/2000/svg"
 width="120.000000pt" height="120.000000pt" viewBox="0 0 120.000000 120.000000"
 preserveAspectRatio="xMidYMid meet">

<g transform="translate(0.000000,120.000000) scale(0.100000,-0.100000)"
fill="#000000" stroke="none">
<path d="M476 1124 c-191 -46 -355 -212 -401 -405 -91 -389 265 -745 654 -654
196 47 359 210 406 406 92 391 -268 748 -659 653z m248 -29 c98 -26 166 -65
242 -140 206 -205 206 -515 0 -720 -209 -207 -513 -207 -722 0 -75 74 -112
139 -139 241 -16 64 -21 224 -4 169 23 -77 119 -70 119 8 0 60 -59 88 -100 47
-27 -27 -26 -8 1 67 92 248 357 392 603 328z m-533 -419 c20 -43 -18 -85 -49
-54 -25 25 -8 78 25 78 7 0 18 -11 24 -24z"/>
<path d="M230 710 c0 -5 9 -10 20 -10 18 0 20 -7 20 -55 0 -30 5 -55 10 -55 6
0 10 25 10 55 0 48 2 55 20 55 11 0 20 5 20 10 0 6 -22 10 -50 10 -27 0 -50
-4 -50 -10z"/>
<path d="M346 683 c-9 -56 -7 -93 4 -93 5 0 12 12 16 28 3 15 7 32 8 37 2 6 8
-7 15 -27 16 -48 26 -48 41 -2 9 27 15 33 21 23 5 -8 9 -24 9 -36 0 -13 5 -23
10 -23 11 0 14 88 4 114 -11 28 -30 17 -44 -24 -7 -22 -16 -40 -20 -40 -4 0
-12 18 -19 40 -15 51 -36 52 -45 3z"/>
<path d="M517 702 c-26 -28 -22 -78 7 -98 27 -17 67 -16 73 2 2 7 -8 9 -26 6
-22 -3 -32 1 -40 17 -11 20 -9 21 34 21 49 0 56 10 29 48 -18 27 -55 29 -77 4z
m61 -19 c2 -9 -7 -13 -28 -13 -28 0 -31 2 -20 15 15 18 41 16 48 -2z"/>
<path d="M632 658 c3 -62 20 -83 26 -33 3 19 9 25 27 25 18 0 24 -6 27 -25 2
-14 8 -25 13 -25 15 0 13 112 -2 118 -8 2 -13 -6 -13 -22 0 -21 -5 -26 -25
-26 -20 0 -25 5 -25 25 0 16 -6 25 -15 25 -13 0 -15 -11 -13 -62z"/>
<path d="M770 655 c0 -36 4 -65 8 -65 12 0 36 29 55 65 l16 30 1 -48 c0 -34 4
-47 13 -44 16 5 17 119 0 124 -6 2 -24 -15 -40 -38 l-28 -43 -3 42 c-5 67 -22
49 -22 -23z"/>
<path d="M890 710 c0 -5 9 -10 20 -10 18 0 20 -7 20 -55 0 -30 5 -55 10 -55 6
0 10 25 10 55 0 48 2 55 20 55 11 0 20 5 20 10 0 6 -22 10 -50 10 -27 0 -50
-4 -50 -10z"/>
<path d="M1010 655 c0 -64 0 -65 28 -65 32 0 72 25 72 45 0 21 -29 45 -56 45
-17 0 -24 5 -24 20 0 11 -4 20 -10 20 -6 0 -10 -28 -10 -65z m65 -20 c0 -13
-8 -21 -22 -23 -19 -3 -23 1 -23 23 0 22 4 26 23 23 14 -2 22 -10 22 -23z"/>
<path d="M370 400 c-26 -26 -26 -64 1 -91 22 -22 69 -23 76 -2 3 7 -3 9 -16 6
-27 -7 -51 13 -51 41 0 28 18 46 47 46 13 0 23 5 23 10 0 18 -59 11 -80 -10z"/>
<path d="M470 356 c0 -52 3 -66 15 -66 12 0 15 13 15 55 0 52 1 55 25 55 24 0
25 -3 25 -56 0 -40 3 -55 13 -51 8 2 12 24 12 63 l0 59 -52 3 -53 3 0 -65z"/>
<path d="M610 355 c0 -80 14 -84 52 -17 l27 47 1 -47 c0 -27 5 -48 10 -48 6 0
10 28 10 65 0 80 -14 84 -52 17 l-27 -47 -1 48 c0 26 -4 47 -10 47 -6 0 -10
-28 -10 -65z"/>
<path d="M744 406 c-9 -25 1 -109 14 -114 8 -2 12 7 12 27 0 26 4 31 24 31 19
0 25 -6 28 -27 2 -14 9 -28 16 -31 9 -3 12 14 12 63 0 49 -3 66 -12 63 -7 -3
-14 -14 -16 -26 -2 -16 -10 -22 -28 -22 -19 0 -24 5 -24 25 0 27 -17 34 -26
11z"/>
</g>
</svg>
